# xmcd CD database file
#
# Track frame offsets:
#	182
#	18020
#	41557
#	66345
#
# Disc length: 1123 seconds
#
# Revision: 1
# Processed by: cddbd v1.5PL3 Copyright (c) Steve Scherf et al.
# Submitted via: CDex 1.51
#
DISCID=2a046104
DTITLE=egma - make my day (maxi cd)
DYEAR=1995
DGENRE=Dance
TTITLE0=make my day (station edit)
TTITLE1=make my day (extended club mix)
TTITLE2=make my day (walk club mix)
TTITLE3=make my day (walk station edit)
EXTD=YEAR: 1995
EXTT0=
EXTT1=
EXTT2=
EXTT3=
PLAYORDER=
